#!OML:ASF F:\VICON\USERDATA\INSTALL\rory3\rory3.ASF
:FULLY-SPECIFIED
:DEGREES
2237
root -5.37402 17.6848 10.6674 358.004 -56.4599 2.6173
lowerback 12.4533 -4.16894 -4.28464
upperback 0.735742 -5.96282 3.70988
thorax -5.34523 -2.82292 7.32923
lowerneck 3.72241 -16.0522 -14.6759
upperneck 35.9846 -30.752 12.3609
head 17.1384 -14.7708 2.66606
rclavicle -2.11706e-014 1.11319e-014
rhumerus -37.8341 -12.4287 -77.6706
rradius 34.8147
rwrist 4.92282
rhand -15.8285 8.46653
rfingers 7.12502
rthumb 10.3656 -21.258
lclavicle -2.11706e-014 1.11319e-014
lhumerus -33.6343 8.46261 80.1382
lradius 33.6182
lwrist -5.23956
lhand -17.9012 27.1579
lfingers 7.12502
lthumb 8.36567 56.9723
rfemur -7.64941 9.434 23.4467
rtibia 33.2769
rfoot -19.7619 10.8772
rtoes 14.1114
lfemur -20.2368 -6.34162 -12.2267
ltibia 16.7569
lfoot 3.78804 -11.8012
ltoes -16.1704
2238
root -5.30948 17.694 10.5772 357.957 -56.174 2.58528
lowerback 12.5123 -4.13249 -4.1323
upperback 0.815551 -5.89761 3.65691
thorax -5.32404 -2.79747 7.17771
lowerneck 3.64306 -15.9788 -14.5678
upperneck 35.878 -30.5404 12.3764
head 17.0291 -14.6625 2.70686
rclavicle 6.27166e-014 1.90833e-014
rhumerus -37.763 -11.9532 -77.982
rradius 35.17
rwrist 4.48653
rhand -15.9371 8.40952
rfingers 7.12502
rthumb 10.2608 -21.3202
lclavicle 6.27166e-014 1.90833e-014
lhumerus -33.4772 8.44497 80.2787
lradius 33.7221
lwrist -5.39802
lhand -18.013 27.6483
lfingers 7.12502
lthumb 8.25781 57.467
rfemur -8.0766 8.74049 23.4462
rtibia 33.4423
rfoot -19.6153 11.176
rtoes 13.8187
lfemur -20.317 -5.96927 -12.3323
ltibia 16.8564
lfoot 2.81444 -11.1962
ltoes -19.5363
2239
root -5.24542 17.7045 10.4898 357.765 -55.9451 2.6963
lowerback 12.5237 -4.08456 -4.0157
upperback 0.910036 -5.82216 3.57991
thorax -5.26093 -2.76834 7.01311
lowerneck 3.55328 -15.8655 -14.5316
upperneck 35.7812 -30.2763 12.4167
head 16.9389 -14.5378 2.77553
rclavicle 1.17283e-014 2.62396e-014
rhumerus -37.6664 -11.3947 -78.3242
rradius 35.5561
rwrist 3.9939
rhand -16.1894 8.30722
rfingers 7.12502
rthumb 10.0175 -21.4344
lclavicle 1.17283e-014 2.62396e-014
lhumerus -33.2833 8.25041 80.4257
lradius 33.8047
lwrist -5.34335
lhand -18.019 27.7569
lfingers 7.12502
lthumb 8.25202 57.5757
rfemur -8.42925 8.05623 23.3684
rtibia 33.5464
rfoot -19.4203 11.4992
rtoes 13.8495
lfemur -20.3509 -5.58334 -12.5283
ltibia 17.2148
lfoot 1.70152 -10.5878
ltoes -19.7009
2240
root -5.18013 17.7155 10.4 357.578 -55.633 2.76555
lowerback 12.5795 -4.07423 -3.90043
upperback 0.963067 -5.79459 3.57387
thorax -5.25163 -2.75915 6.93979
lowerneck 3.51629 -15.7043 -14.7151
upperneck 35.722 -29.9838 12.5142
head 16.9139 -14.4247 2.90187
rclavicle 2.5842e-015 7.15625e-015
rhumerus -37.6371 -10.6529 -78.5568
rradius 35.9572
rwrist 3.54031
rhand -16.38 8.38958
rfingers 7.12502
rthumb 9.83351 -21.3608
lclavicle 2.5842e-015 7.15625e-015
lhumerus -33.1912 8.08213 80.645
lradius 33.9163
lwrist -5.41728
lhand -17.7648 27.7427
lfingers 7.12502
lthumb 8.49731 57.5517
rfemur -8.71381 7.32075 23.331
rtibia 33.5895
rfoot -19.2873 11.7862
rtoes 13.774
lfemur -20.4239 -5.11966 -12.7545
ltibia 17.8355
lfoot 0.471772 -10.0817
ltoes -18.1989
2241
root -5.11564 17.7258 10.3108 357.247 -55.2888 2.94858
lowerback 12.68 -4.06596 -3.91054
upperback 0.97176 -5.78688 3.58875
thorax -5.2966 -2.75332 6.97021
lowerneck 3.56297 -15.488 -14.9716
upperneck 35.7518 -29.6424 12.5859
head 16.9172 -14.3089 3.04735
rclavicle 2.8625e-014 4.92986e-014
rhumerus -37.711 -10.17 -78.4684
rradius 36.2294
rwrist 3.79466
rhand -15.9373 8.89121
rfingers 7.12502
rthumb 10.2607 -20.8385
lclavicle 2.8625e-014 4.92986e-014
lhumerus -33.217 8.00303 80.9287
lradius 34.0342
lwrist -5.58351
lhand -17.5355 27.7376
lfingers 7.12502
lthumb 8.71857 57.5375
rfemur -8.9298 6.5574 23.2208
rtibia 33.6073
rfoot -19.1467 12.0433
rtoes 13.98
lfemur -20.4454 -4.48686 -13.1572
ltibia 18.6851
lfoot -0.915213 -9.45817
ltoes -18.303
2242
root -5.05425 17.7378 10.2207 356.893 -54.8936 3.20993
lowerback 12.7353 -4.02843 -3.96396
upperback 0.992361 -5.74812 3.53675
thorax -5.3111 -2.7328 6.9433
lowerneck 3.42605 -15.3474 -14.8952
upperneck 35.9302 -29.3618 12.4369
head 16.9288 -14.1794 3.03191
rclavicle -3.20043e-014 4.77083e-015
rhumerus -37.7569 -10.0161 -78.3786
rradius 36.4782
rwrist 4.16429
rhand -15.177 9.39961
rfingers 7.12502
rthumb 10.994 -20.2925
lclavicle -3.20043e-014 4.77083e-015
lhumerus -33.1129 7.80509 81.2205
lradius 34.0582
lwrist -5.8032
lhand -17.6268 27.4861
lfingers 7.12502
lthumb 8.63046 57.2896
rfemur -9.1527 5.95335 23.0549
rtibia 33.6031
rfoot -18.8888 12.2672
rtoes 14.8969
lfemur -20.5343 -3.8926 -13.6243
ltibia 19.7565
lfoot -2.4135 -8.4624
ltoes -19.9084
2243
root -4.99579 17.7478 10.1313 356.581 -54.5007 3.38908
lowerback 12.7956 -4.00123 -3.99607
upperback 1.0352 -5.72062 3.48731
thorax -5.30493 -2.71992 6.90764
lowerneck 3.20816 -15.201 -14.7195
upperneck 36.144 -29.0435 12.2159
head 16.9313 -14.0221 2.97564
rclavicle -1.55052e-014 2.54444e-014
rhumerus -37.79 -9.10155 -78.8477
rradius 36.9997
rwrist 2.59615
rhand -15.4535 8.98865
rfingers 7.12502
rthumb 10.7273 -20.7175
lclavicle -1.55052e-014 2.54444e-014
lhumerus -32.9617 7.54869 81.4766
lradius 34.0691
lwrist -5.96523
lhand -17.7828 27.3926
lfingers 7.12502
lthumb 8.47999 57.2023
rfemur -9.30349 5.49602 22.9529
rtibia 33.5626
rfoot -18.6241 12.4458
rtoes 15.3667
lfemur -20.5826 -3.46402 -14.0166
ltibia 21.0195
lfoot -3.73844 -6.99409
ltoes -20.7296
2244
root -4.9355 17.7543 10.0418 356.515 -54.1239 3.287
lowerback 12.8595 -4.02447 -3.90857
upperback 1.0375 -5.73805 3.54652
thorax -5.33781 -2.72902 6.93074
lowerneck 3.10521 -14.9691 -14.7416
upperneck 36.285 -28.5748 12.0209
head 16.8831 -13.8354 3.00008
rclavicle 3.79679e-014 3.33958e-014
rhumerus -37.8306 -8.37299 -78.926
rradius 37.3378
rwrist 2.28722
rhand -15.1495 9.01729
rfingers 7.12502
rthumb 11.0205 -20.6734
lclavicle 3.79679e-014 3.33958e-014
lhumerus -32.948 7.25703 81.852
lradius 34.1751
lwrist -5.88451
lhand -18.077 27.4283
lfingers 7.12502
lthumb 8.19603 57.2494
rfemur -9.46534 4.97173 23.0378
rtibia 33.4518
rfoot -18.3113 12.5363
rtoes 15.1836
lfemur -20.6394 -3.08658 -14.2357
ltibia 22.4513
lfoot -4.54474 -5.25808
ltoes -19.5809
2245
root -4.87564 17.7663 9.95422 356.673 -53.748 3.02254
lowerback 12.7904 -4.04472 -3.66447
upperback 1.02307 -5.72519 3.61226
thorax -5.33374 -2.72776 6.85547
lowerneck 2.89707 -14.7885 -14.588
upperneck 36.5328 -28.147 11.6608
head 16.8519 -13.6477 2.91447
rclavicle 1.04163e-013 3.65764e-014
rhumerus -37.8429 -7.84257 -78.9521
rradius 37.5867
rwrist 1.79635
rhand -15.0895 8.90758
rfingers 7.12502
rthumb 11.0784 -20.78
lclavicle 1.04163e-013 3.65764e-014
lhumerus -32.9134 6.97391 82.2322
lradius 34.2373
lwrist -5.98175
lhand -18.0259 27.3572
lfingers 7.12502
lthumb 8.24534 57.1763
rfemur -9.71113 4.33 23.2259
rtibia 33.2873
rfoot -18.1023 12.5939
rtoes 13.7625
lfemur -20.775 -2.7391 -14.3694
ltibia 23.9954
lfoot -5.10933 -3.2713
ltoes -19.0003
2246
root -4.81705 17.7826 9.87196 356.673 -53.3614 2.88182
lowerback 12.698 -4.01685 -3.37976
upperback 1.06832 -5.64837 3.56449
thorax -5.27767 -2.69956 6.61986
lowerneck 2.57644 -14.699 -14.0975
upperneck 36.7729 -27.848 11.2586
head 16.7955 -13.4684 2.72984
rclavicle -1.17283e-014 1.82882e-014
rhumerus -37.7924 -7.89253 -78.8935
rradius 37.6846
rwrist 1.77501
rhand -15.0438 8.92344
rfingers 7.12502
rthumb 11.1225 -20.7618
lclavicle -1.17283e-014 1.82882e-014
lhumerus -32.7353 6.43667 82.5656
lradius 34.2806
lwrist -6.08073
lhand -17.8033 27.1951
lfingers 7.12502
lthumb 8.46016 57.0056
rfemur -9.81828 3.67916 23.314
rtibia 33.0738
rfoot -17.9608 12.722
rtoes 12.2492
lfemur -20.8212 -2.50052 -14.5912
ltibia 25.6673
lfoot -5.4828 -1.02503
ltoes -18.7947
2247
root -4.76125 17.7977 9.79133 356.534 -53.0428 2.85789
lowerback 12.6315 -3.97568 -3.20281
upperback 1.10436 -5.57077 3.4984
thorax -5.23659 -2.66757 6.42894
lowerneck 2.39857 -14.5538 -13.7423
upperneck 36.9198 -27.5197 11.0183
head 16.7206 -13.2945 2.64791
rclavicle -5.98342e-014 0
rhumerus -37.7788 -8.0626 -78.8136
rradius 37.7255
rwrist 2.0195
rhand -15.2377 9.04987
rfingers 7.12502
rthumb 10.9355 -20.6453
lclavicle -5.98342e-014 0
lhumerus -32.6053 5.90549 82.858
lradius 34.3188
lwrist -6.02669
lhand -17.6114 27.0959
lfingers 7.12502
lthumb 8.6454 56.8988
rfemur -9.85132 3.14516 23.3212
rtibia 32.8345
rfoot -17.7933 12.8842
rtoes 11.4462
lfemur -20.7674 -2.25169 -14.8682
ltibia 27.4404
lfoot -5.78912 1.17214
ltoes -17.3739
2248
root -4.70622 17.8108 9.71363 356.524 -52.6809 2.68457
lowerback 12.5665 -3.9725 -2.96231
upperback 1.09421 -5.53049 3.52275
thorax -5.23686 -2.65248 6.30778
lowerneck 2.24532 -14.4133 -13.5717
upperneck 37.1398 -27.1921 10.7116
head 16.7036 -13.1483 2.56036
rclavicle 9.75039e-014 -2.46493e-014
rhumerus -37.8068 -8.04101 -78.648
rradius 37.7835
rwrist 2.03168
rhand -15.3671 9.12942
rfingers 7.12502
rthumb 10.8107 -20.5724
lclavicle 9.75039e-014 -2.46493e-014
lhumerus -32.6085 5.65274 83.1731
lradius 34.35
lwrist -6.17227
lhand -17.7054 26.9619
lfingers 7.12502
lthumb 8.55461 56.7686
rfemur -9.88325 2.59791 23.4233
rtibia 32.5888
rfoot -17.774 12.9225
rtoes 9.89808
lfemur -20.6879 -1.90879 -15.1024
ltibia 29.2728
lfoot -6.14122 2.98672
ltoes -15.6229
2249
root -4.65096 17.8179 9.63609 356.665 -52.2618 2.36327
lowerback 12.4699 -4.02024 -2.65895
upperback 1.0588 -5.54561 3.6225
thorax -5.23777 -2.6655 6.23848
lowerneck 2.15407 -14.2192 -13.5864
upperneck 37.3324 -26.8082 10.4949
head 16.7056 -12.999 2.54919
rclavicle -1.81888e-014 6.36111e-015
rhumerus -37.8392 -7.93338 -78.3763
rradius 37.8303
rwrist 1.99897
rhand -15.2295 9.27184
rfingers 7.12502
rthumb 10.9434 -20.423
lclavicle -1.81888e-014 6.36111e-015
lhumerus -32.7233 5.66616 83.483
lradius 34.4656
lwrist -6.56465
lhand -17.6668 26.8543
lfingers 7.12502
lthumb 8.59192 56.6595
rfemur -9.94012 2.07541 23.6407
rtibia 32.3473
rfoot -17.8724 12.802
rtoes 7.01838
lfemur -20.6474 -1.4418 -15.2797
ltibia 31.1531
lfoot -6.32896 4.37629
ltoes -14.935
